<svg
  width="678"
  height="187"
  viewBox="0 0 678 187"
  fill="none"
  xmlns="http://www.w3.org/2000/svg"
>
  <g clip-path="url(#clip0_272_52)">
    <path
      d="M218.35 153V34H281.25C290.203 34 297.967 35.6433 304.54 38.93C311.113 42.1033 316.157 46.6367 319.67 52.53C323.297 58.4233 325.11 65.3933 325.11 73.44C325.11 81.26 323.523 87.72 320.35 92.82C317.177 97.92 312.927 101.943 307.6 104.89C302.273 107.837 296.323 109.933 289.75 111.18C283.29 112.427 276.773 113.05 270.2 113.05H256.26V153H218.35ZM290.09 153L267.31 110.67L303.01 104.38L331.74 153H290.09ZM256.26 87.72H272.75C277.963 87.72 281.76 86.8133 284.14 85C286.633 83.0733 287.88 80.1833 287.88 76.33C287.88 72.3633 286.69 69.53 284.31 67.83C281.93 66.13 278.077 65.28 272.75 65.28H256.26V87.72ZM342.862 153V34H380.772V153H342.862ZM443.673 154.53C437.78 154.53 431.716 154.077 425.483 153.17C419.25 152.263 412.79 150.903 406.103 149.09L395.563 146.2L401.513 117.3L416.133 119.17C419.873 119.623 424.35 120.077 429.563 120.53C434.89 120.983 440.443 121.21 446.223 121.21C449.85 121.21 452.343 120.87 453.703 120.19C455.063 119.51 455.743 118.66 455.743 117.64C455.743 116.847 455.46 116.11 454.893 115.43C454.326 114.75 452.74 113.9 450.133 112.88C447.64 111.86 443.39 110.443 437.383 108.63C428.09 105.797 420.723 102.793 415.283 99.62C409.843 96.4467 405.99 92.5933 403.723 88.06C401.456 83.4133 400.323 77.52 400.323 70.38C400.323 61.4267 402.533 54.1733 406.953 48.62C411.486 43.0667 417.606 38.9867 425.313 36.38C433.133 33.7733 441.973 32.47 451.833 32.47C457.046 32.47 462.43 32.8667 467.983 33.66C473.536 34.34 479.033 35.36 484.473 36.72L493.823 39.1L488.553 67.83L472.403 66.13C470.25 65.9033 467.416 65.7333 463.903 65.62C460.39 65.3933 455.97 65.28 450.643 65.28C446.45 65.28 443.446 65.62 441.633 66.3C439.82 66.98 438.913 68.1133 438.913 69.7C438.913 70.4933 439.31 71.23 440.103 71.91C440.896 72.59 442.766 73.3833 445.713 74.29C448.773 75.1967 453.59 76.5 460.163 78.2C469.343 80.3533 476.483 83.0733 481.583 86.36C486.796 89.5333 490.423 93.33 492.463 97.75C494.616 102.17 495.693 107.327 495.693 113.22C495.693 122.627 493.37 130.39 488.723 136.51C484.19 142.63 477.956 147.163 470.023 150.11C462.203 153.057 453.42 154.53 443.673 154.53ZM582.59 153L555.9 106.76H536.86V78.71H556.58L584.29 34H623.22L587.18 90.95L626.11 153H582.59ZM511.7 153V34H549.61V153H511.7Z"
      fill="white"
    />
    <mask
      id="path-2-outside-1_272_52"
      maskUnits="userSpaceOnUse"
      x="37"
      y="27"
      width="162"
      height="137"
      fill="black"
    >
      <rect fill="white" x="37" y="27" width="162" height="137" />
      <path
        d="M67.3415 52.1565V48.985C67.3415 47.8104 67.927 47.2231 69.0979 47.2231H72.2596C78.3955 47.2231 83.8756 49.1964 88.7001 53.1432C86.686 55.3515 84.6251 57.5597 82.5173 59.768C80.4095 61.9763 78.372 64.1376 76.4048 66.2519C75.9364 66.7218 75.468 67.1916 74.9996 67.6615C74.5781 68.1313 74.1331 68.6012 73.6647 69.071C69.4492 64.1846 67.3415 58.5464 67.3415 52.1565ZM162.331 69.071C161.909 68.6012 161.464 68.1313 160.996 67.6615C160.528 67.1916 160.083 66.7218 159.661 66.2519H159.591C157.624 64.1376 155.586 61.9763 153.478 59.768C151.417 57.5597 149.38 55.3515 147.366 53.1432C152.143 49.1964 157.624 47.2231 163.806 47.2231H166.898C168.069 47.2231 168.654 47.8104 168.654 48.985V52.1565C168.654 58.5464 166.546 64.1846 162.331 69.071ZM125.586 142.156C128.396 142.156 130.785 141.146 132.752 139.125C134.766 137.152 135.773 134.779 135.773 132.007C135.773 130.316 134.93 129.47 133.244 129.47C131.558 129.47 130.715 130.316 130.715 132.007C130.715 133.37 130.199 134.544 129.169 135.531C128.185 136.565 126.991 137.082 125.586 137.082C124.227 137.082 123.033 136.565 122.003 135.531C121.019 134.544 120.527 133.37 120.527 132.007C120.527 130.316 119.684 129.47 117.998 129.47C116.312 129.47 115.469 130.316 115.469 132.007C115.469 133.37 114.977 134.544 113.993 135.531C113.009 136.565 111.815 137.082 110.41 137.082C109.052 137.082 107.857 136.565 106.827 135.531C105.843 134.544 105.351 133.37 105.351 132.007C105.351 130.316 104.508 129.47 102.822 129.47C101.136 129.47 100.293 130.316 100.293 132.007C100.293 134.779 101.276 137.152 103.244 139.125C105.258 141.146 107.646 142.156 110.41 142.156C113.454 142.156 115.984 141.005 117.998 138.703C120.059 141.005 122.588 142.156 125.586 142.156ZM64.0393 32H70.2923C79.0044 32 86.8499 34.6546 93.8289 39.9639C97.4824 38.1315 101.347 36.722 105.422 35.7353C109.497 34.7486 113.689 34.2553 117.998 34.2553C122.354 34.2553 126.569 34.7486 130.644 35.7353C134.719 36.722 138.584 38.1315 142.237 39.9639C149.216 34.6546 157.062 32 165.774 32H172.027C175.305 32 178.092 33.1746 180.387 35.5239C182.683 37.8261 183.83 40.6217 183.83 43.9107V50.1831C183.83 58.8283 181.254 66.6278 176.102 73.5816L189.24 89.298C191.769 92.305 193.292 95.7584 193.807 99.6582C194.322 103.511 193.807 107.199 192.261 110.723H192.191C187.975 120.214 182.144 128.577 174.696 135.813C167.296 143.096 158.748 148.781 149.052 152.868C139.403 156.956 129.052 159 117.998 159C106.991 159 96.6393 156.956 86.9436 152.868C77.2948 148.781 68.7466 143.096 61.2992 135.813C53.8987 128.577 48.0672 120.238 43.8049 110.794C42.2123 107.223 41.6737 103.511 42.1889 99.6582C42.751 95.8054 44.2733 92.3755 46.7557 89.3685H46.826L59.9643 73.5816C54.7652 66.6278 52.1656 58.8283 52.1656 50.1831V43.9107C52.1656 40.6217 53.3132 37.8261 55.6083 35.5239C57.9502 33.1746 60.7606 32 64.0393 32ZM62.3531 43.9107V50.1831C62.3531 57.8417 64.9761 64.49 70.2221 70.1282L73.3134 73.3701L54.5544 95.8524C51.8378 99.1883 51.3459 102.783 53.079 106.635C54.6715 110.253 56.5685 113.707 58.7699 116.996C59.9409 110.794 62.6107 105.296 66.7794 100.504L79.988 85.3513C84.3909 80.2769 89.9179 77.7397 96.569 77.7397H96.9906C102.283 77.8337 106.897 79.6426 110.831 83.1665C114.766 86.6434 117.155 90.8955 117.998 95.9229C118.888 90.8485 121.3 86.5729 125.234 83.096C129.169 79.6191 133.783 77.8337 139.075 77.7397H139.497C146.195 77.7397 151.745 80.2769 156.148 85.3513L169.357 100.504C173.525 105.249 176.195 110.7 177.366 116.855C179.521 113.566 181.394 110.159 182.987 106.635C184.72 102.642 184.228 99.0474 181.512 95.8524L162.682 73.3701L165.844 70.1282C171.09 64.49 173.713 57.8417 173.713 50.1831V43.9107C173.713 42.736 173.151 42.1487 172.027 42.1487H165.774C158.279 42.1487 151.769 44.7094 146.242 49.8307L143.502 52.3679L140.27 50.465C136.991 48.5387 133.478 47.0586 129.731 46.025C125.984 44.9443 122.073 44.404 117.998 44.404C113.97 44.404 110.082 44.9443 106.335 46.025C102.588 47.0586 99.0749 48.5387 95.7962 50.465L92.5643 52.3679L89.8242 49.8307C84.2972 44.7094 77.7866 42.1487 70.2923 42.1487H64.0393C62.9152 42.1487 62.3531 42.736 62.3531 43.9107ZM165.563 103.816L152.284 88.6637C148.912 84.764 144.649 82.8141 139.497 82.8141H139.146C136.148 82.8611 133.408 83.6598 130.925 85.2103C128.443 86.7138 126.452 88.7342 124.953 91.2714C123.501 93.7616 122.775 96.5337 122.775 99.5877V107.693H126.288C127.178 107.693 128.092 107.763 129.028 107.904V99.5877C129.028 96.5807 130.059 93.9965 132.12 91.8352C134.181 89.6269 136.687 88.4993 139.637 88.4523C143.15 88.4053 146.008 89.7209 148.209 92.399L161.347 107.552C164.111 110.747 165.891 114.317 166.687 118.264C167.53 122.211 167.46 126.04 166.476 129.752C168.771 127.591 170.926 125.288 172.94 122.845C172.799 115.656 170.34 109.314 165.563 103.816ZM113.291 107.693V99.5877C113.244 96.5337 112.471 93.7616 110.972 91.2714C109.52 88.7342 107.553 86.7138 105.07 85.2103C102.635 83.6598 99.918 82.8611 96.9203 82.8141H96.569C91.4167 82.8141 87.1544 84.764 83.782 88.6637V88.7342L70.5734 103.816C65.7489 109.361 63.2899 115.75 63.1962 122.986C65.2103 125.429 67.3883 127.732 69.7303 129.893C68.6998 126.134 68.5827 122.281 69.379 118.335C70.1752 114.388 71.9785 110.794 74.7889 107.552L87.9272 92.399C90.1286 89.7209 92.9858 88.4053 96.4987 88.4523C99.4496 88.4993 101.955 89.6269 104.016 91.8352C106.077 93.9965 107.108 96.5807 107.108 99.5877V107.834C107.998 107.74 108.864 107.693 109.707 107.693H113.291ZM133.665 147.089C136.382 145.116 138.56 142.555 140.2 139.407C141.839 136.306 142.659 132.923 142.659 129.259C142.659 125.124 141.324 121.53 138.654 118.476C135.984 115.375 132.682 113.542 128.747 112.978C129.169 113.871 129.309 114.834 129.169 115.868C129.075 116.902 128.63 117.841 127.834 118.687L121.441 125.1C120.504 126.04 119.356 126.51 117.998 126.51C116.686 126.51 115.539 126.04 114.555 125.1L108.232 118.687C107.436 117.841 106.967 116.902 106.827 115.868C106.733 114.834 106.897 113.871 107.319 112.978C103.384 113.542 100.059 115.375 97.3418 118.476C94.672 121.53 93.3371 125.124 93.3371 129.259C93.3371 132.923 94.1568 136.306 95.7962 139.407C97.4355 142.555 99.637 145.116 102.4 147.089C107.553 148.264 112.752 148.851 117.998 148.851C123.291 148.851 128.513 148.264 133.665 147.089ZM138.584 110.23C139.614 110.23 140.504 109.877 141.253 109.173C142.003 108.421 142.378 107.505 142.378 106.424V98.8124C142.378 97.7788 142.003 96.8861 141.253 96.1343C140.504 95.3825 139.614 95.0067 138.584 95.0067C137.553 95.0067 136.663 95.3825 135.914 96.1343C135.164 96.8861 134.79 97.7788 134.79 98.8124V106.424C134.79 107.458 135.164 108.35 135.914 109.102C136.663 109.854 137.553 110.23 138.584 110.23ZM93.9694 105.86C93.9694 106.894 94.3442 107.787 95.0936 108.538C95.843 109.29 96.7329 109.666 97.7634 109.666C98.7939 109.666 99.6838 109.314 100.433 108.609C101.183 107.857 101.557 106.941 101.557 105.86V98.2486C101.557 97.2149 101.183 96.3222 100.433 95.5705C99.6838 94.8187 98.7939 94.4428 97.7634 94.4428C96.7329 94.4428 95.843 94.8187 95.0936 95.5705C94.3442 96.3222 93.9694 97.2149 93.9694 98.2486V105.86Z"
      />
    </mask>
    <path
      d="M67.3415 52.1565V48.985C67.3415 47.8104 67.927 47.2231 69.0979 47.2231H72.2596C78.3955 47.2231 83.8756 49.1964 88.7001 53.1432C86.686 55.3515 84.6251 57.5597 82.5173 59.768C80.4095 61.9763 78.372 64.1376 76.4048 66.2519C75.9364 66.7218 75.468 67.1916 74.9996 67.6615C74.5781 68.1313 74.1331 68.6012 73.6647 69.071C69.4492 64.1846 67.3415 58.5464 67.3415 52.1565ZM162.331 69.071C161.909 68.6012 161.464 68.1313 160.996 67.6615C160.528 67.1916 160.083 66.7218 159.661 66.2519H159.591C157.624 64.1376 155.586 61.9763 153.478 59.768C151.417 57.5597 149.38 55.3515 147.366 53.1432C152.143 49.1964 157.624 47.2231 163.806 47.2231H166.898C168.069 47.2231 168.654 47.8104 168.654 48.985V52.1565C168.654 58.5464 166.546 64.1846 162.331 69.071ZM125.586 142.156C128.396 142.156 130.785 141.146 132.752 139.125C134.766 137.152 135.773 134.779 135.773 132.007C135.773 130.316 134.93 129.47 133.244 129.47C131.558 129.47 130.715 130.316 130.715 132.007C130.715 133.37 130.199 134.544 129.169 135.531C128.185 136.565 126.991 137.082 125.586 137.082C124.227 137.082 123.033 136.565 122.003 135.531C121.019 134.544 120.527 133.37 120.527 132.007C120.527 130.316 119.684 129.47 117.998 129.47C116.312 129.47 115.469 130.316 115.469 132.007C115.469 133.37 114.977 134.544 113.993 135.531C113.009 136.565 111.815 137.082 110.41 137.082C109.052 137.082 107.857 136.565 106.827 135.531C105.843 134.544 105.351 133.37 105.351 132.007C105.351 130.316 104.508 129.47 102.822 129.47C101.136 129.47 100.293 130.316 100.293 132.007C100.293 134.779 101.276 137.152 103.244 139.125C105.258 141.146 107.646 142.156 110.41 142.156C113.454 142.156 115.984 141.005 117.998 138.703C120.059 141.005 122.588 142.156 125.586 142.156ZM64.0393 32H70.2923C79.0044 32 86.8499 34.6546 93.8289 39.9639C97.4824 38.1315 101.347 36.722 105.422 35.7353C109.497 34.7486 113.689 34.2553 117.998 34.2553C122.354 34.2553 126.569 34.7486 130.644 35.7353C134.719 36.722 138.584 38.1315 142.237 39.9639C149.216 34.6546 157.062 32 165.774 32H172.027C175.305 32 178.092 33.1746 180.387 35.5239C182.683 37.8261 183.83 40.6217 183.83 43.9107V50.1831C183.83 58.8283 181.254 66.6278 176.102 73.5816L189.24 89.298C191.769 92.305 193.292 95.7584 193.807 99.6582C194.322 103.511 193.807 107.199 192.261 110.723H192.191C187.975 120.214 182.144 128.577 174.696 135.813C167.296 143.096 158.748 148.781 149.052 152.868C139.403 156.956 129.052 159 117.998 159C106.991 159 96.6393 156.956 86.9436 152.868C77.2948 148.781 68.7466 143.096 61.2992 135.813C53.8987 128.577 48.0672 120.238 43.8049 110.794C42.2123 107.223 41.6737 103.511 42.1889 99.6582C42.751 95.8054 44.2733 92.3755 46.7557 89.3685H46.826L59.9643 73.5816C54.7652 66.6278 52.1656 58.8283 52.1656 50.1831V43.9107C52.1656 40.6217 53.3132 37.8261 55.6083 35.5239C57.9502 33.1746 60.7606 32 64.0393 32ZM62.3531 43.9107V50.1831C62.3531 57.8417 64.9761 64.49 70.2221 70.1282L73.3134 73.3701L54.5544 95.8524C51.8378 99.1883 51.3459 102.783 53.079 106.635C54.6715 110.253 56.5685 113.707 58.7699 116.996C59.9409 110.794 62.6107 105.296 66.7794 100.504L79.988 85.3513C84.3909 80.2769 89.9179 77.7397 96.569 77.7397H96.9906C102.283 77.8337 106.897 79.6426 110.831 83.1665C114.766 86.6434 117.155 90.8955 117.998 95.9229C118.888 90.8485 121.3 86.5729 125.234 83.096C129.169 79.6191 133.783 77.8337 139.075 77.7397H139.497C146.195 77.7397 151.745 80.2769 156.148 85.3513L169.357 100.504C173.525 105.249 176.195 110.7 177.366 116.855C179.521 113.566 181.394 110.159 182.987 106.635C184.72 102.642 184.228 99.0474 181.512 95.8524L162.682 73.3701L165.844 70.1282C171.09 64.49 173.713 57.8417 173.713 50.1831V43.9107C173.713 42.736 173.151 42.1487 172.027 42.1487H165.774C158.279 42.1487 151.769 44.7094 146.242 49.8307L143.502 52.3679L140.27 50.465C136.991 48.5387 133.478 47.0586 129.731 46.025C125.984 44.9443 122.073 44.404 117.998 44.404C113.97 44.404 110.082 44.9443 106.335 46.025C102.588 47.0586 99.0749 48.5387 95.7962 50.465L92.5643 52.3679L89.8242 49.8307C84.2972 44.7094 77.7866 42.1487 70.2923 42.1487H64.0393C62.9152 42.1487 62.3531 42.736 62.3531 43.9107ZM165.563 103.816L152.284 88.6637C148.912 84.764 144.649 82.8141 139.497 82.8141H139.146C136.148 82.8611 133.408 83.6598 130.925 85.2103C128.443 86.7138 126.452 88.7342 124.953 91.2714C123.501 93.7616 122.775 96.5337 122.775 99.5877V107.693H126.288C127.178 107.693 128.092 107.763 129.028 107.904V99.5877C129.028 96.5807 130.059 93.9965 132.12 91.8352C134.181 89.6269 136.687 88.4993 139.637 88.4523C143.15 88.4053 146.008 89.7209 148.209 92.399L161.347 107.552C164.111 110.747 165.891 114.317 166.687 118.264C167.53 122.211 167.46 126.04 166.476 129.752C168.771 127.591 170.926 125.288 172.94 122.845C172.799 115.656 170.34 109.314 165.563 103.816ZM113.291 107.693V99.5877C113.244 96.5337 112.471 93.7616 110.972 91.2714C109.52 88.7342 107.553 86.7138 105.07 85.2103C102.635 83.6598 99.918 82.8611 96.9203 82.8141H96.569C91.4167 82.8141 87.1544 84.764 83.782 88.6637V88.7342L70.5734 103.816C65.7489 109.361 63.2899 115.75 63.1962 122.986C65.2103 125.429 67.3883 127.732 69.7303 129.893C68.6998 126.134 68.5827 122.281 69.379 118.335C70.1752 114.388 71.9785 110.794 74.7889 107.552L87.9272 92.399C90.1286 89.7209 92.9858 88.4053 96.4987 88.4523C99.4496 88.4993 101.955 89.6269 104.016 91.8352C106.077 93.9965 107.108 96.5807 107.108 99.5877V107.834C107.998 107.74 108.864 107.693 109.707 107.693H113.291ZM133.665 147.089C136.382 145.116 138.56 142.555 140.2 139.407C141.839 136.306 142.659 132.923 142.659 129.259C142.659 125.124 141.324 121.53 138.654 118.476C135.984 115.375 132.682 113.542 128.747 112.978C129.169 113.871 129.309 114.834 129.169 115.868C129.075 116.902 128.63 117.841 127.834 118.687L121.441 125.1C120.504 126.04 119.356 126.51 117.998 126.51C116.686 126.51 115.539 126.04 114.555 125.1L108.232 118.687C107.436 117.841 106.967 116.902 106.827 115.868C106.733 114.834 106.897 113.871 107.319 112.978C103.384 113.542 100.059 115.375 97.3418 118.476C94.672 121.53 93.3371 125.124 93.3371 129.259C93.3371 132.923 94.1568 136.306 95.7962 139.407C97.4355 142.555 99.637 145.116 102.4 147.089C107.553 148.264 112.752 148.851 117.998 148.851C123.291 148.851 128.513 148.264 133.665 147.089ZM138.584 110.23C139.614 110.23 140.504 109.877 141.253 109.173C142.003 108.421 142.378 107.505 142.378 106.424V98.8124C142.378 97.7788 142.003 96.8861 141.253 96.1343C140.504 95.3825 139.614 95.0067 138.584 95.0067C137.553 95.0067 136.663 95.3825 135.914 96.1343C135.164 96.8861 134.79 97.7788 134.79 98.8124V106.424C134.79 107.458 135.164 108.35 135.914 109.102C136.663 109.854 137.553 110.23 138.584 110.23ZM93.9694 105.86C93.9694 106.894 94.3442 107.787 95.0936 108.538C95.843 109.29 96.7329 109.666 97.7634 109.666C98.7939 109.666 99.6838 109.314 100.433 108.609C101.183 107.857 101.557 106.941 101.557 105.86V98.2486C101.557 97.2149 101.183 96.3222 100.433 95.5705C99.6838 94.8187 98.7939 94.4428 97.7634 94.4428C96.7329 94.4428 95.843 94.8187 95.0936 95.5705C94.3442 96.3222 93.9694 97.2149 93.9694 98.2486V105.86Z"
      fill="white"
    />
    <path
      d="M67.3415 52.1565V48.985C67.3415 47.8104 67.927 47.2231 69.0979 47.2231H72.2596C78.3955 47.2231 83.8756 49.1964 88.7001 53.1432C86.686 55.3515 84.6251 57.5597 82.5173 59.768C80.4095 61.9763 78.372 64.1376 76.4048 66.2519C75.9364 66.7218 75.468 67.1916 74.9996 67.6615C74.5781 68.1313 74.1331 68.6012 73.6647 69.071C69.4492 64.1846 67.3415 58.5464 67.3415 52.1565ZM162.331 69.071C161.909 68.6012 161.464 68.1313 160.996 67.6615C160.528 67.1916 160.083 66.7218 159.661 66.2519H159.591C157.624 64.1376 155.586 61.9763 153.478 59.768C151.417 57.5597 149.38 55.3515 147.366 53.1432C152.143 49.1964 157.624 47.2231 163.806 47.2231H166.898C168.069 47.2231 168.654 47.8104 168.654 48.985V52.1565C168.654 58.5464 166.546 64.1846 162.331 69.071ZM125.586 142.156C128.396 142.156 130.785 141.146 132.752 139.125C134.766 137.152 135.773 134.779 135.773 132.007C135.773 130.316 134.93 129.47 133.244 129.47C131.558 129.47 130.715 130.316 130.715 132.007C130.715 133.37 130.199 134.544 129.169 135.531C128.185 136.565 126.991 137.082 125.586 137.082C124.227 137.082 123.033 136.565 122.003 135.531C121.019 134.544 120.527 133.37 120.527 132.007C120.527 130.316 119.684 129.47 117.998 129.47C116.312 129.47 115.469 130.316 115.469 132.007C115.469 133.37 114.977 134.544 113.993 135.531C113.009 136.565 111.815 137.082 110.41 137.082C109.052 137.082 107.857 136.565 106.827 135.531C105.843 134.544 105.351 133.37 105.351 132.007C105.351 130.316 104.508 129.47 102.822 129.47C101.136 129.47 100.293 130.316 100.293 132.007C100.293 134.779 101.276 137.152 103.244 139.125C105.258 141.146 107.646 142.156 110.41 142.156C113.454 142.156 115.984 141.005 117.998 138.703C120.059 141.005 122.588 142.156 125.586 142.156ZM64.0393 32H70.2923C79.0044 32 86.8499 34.6546 93.8289 39.9639C97.4824 38.1315 101.347 36.722 105.422 35.7353C109.497 34.7486 113.689 34.2553 117.998 34.2553C122.354 34.2553 126.569 34.7486 130.644 35.7353C134.719 36.722 138.584 38.1315 142.237 39.9639C149.216 34.6546 157.062 32 165.774 32H172.027C175.305 32 178.092 33.1746 180.387 35.5239C182.683 37.8261 183.83 40.6217 183.83 43.9107V50.1831C183.83 58.8283 181.254 66.6278 176.102 73.5816L189.24 89.298C191.769 92.305 193.292 95.7584 193.807 99.6582C194.322 103.511 193.807 107.199 192.261 110.723H192.191C187.975 120.214 182.144 128.577 174.696 135.813C167.296 143.096 158.748 148.781 149.052 152.868C139.403 156.956 129.052 159 117.998 159C106.991 159 96.6393 156.956 86.9436 152.868C77.2948 148.781 68.7466 143.096 61.2992 135.813C53.8987 128.577 48.0672 120.238 43.8049 110.794C42.2123 107.223 41.6737 103.511 42.1889 99.6582C42.751 95.8054 44.2733 92.3755 46.7557 89.3685H46.826L59.9643 73.5816C54.7652 66.6278 52.1656 58.8283 52.1656 50.1831V43.9107C52.1656 40.6217 53.3132 37.8261 55.6083 35.5239C57.9502 33.1746 60.7606 32 64.0393 32ZM62.3531 43.9107V50.1831C62.3531 57.8417 64.9761 64.49 70.2221 70.1282L73.3134 73.3701L54.5544 95.8524C51.8378 99.1883 51.3459 102.783 53.079 106.635C54.6715 110.253 56.5685 113.707 58.7699 116.996C59.9409 110.794 62.6107 105.296 66.7794 100.504L79.988 85.3513C84.3909 80.2769 89.9179 77.7397 96.569 77.7397H96.9906C102.283 77.8337 106.897 79.6426 110.831 83.1665C114.766 86.6434 117.155 90.8955 117.998 95.9229C118.888 90.8485 121.3 86.5729 125.234 83.096C129.169 79.6191 133.783 77.8337 139.075 77.7397H139.497C146.195 77.7397 151.745 80.2769 156.148 85.3513L169.357 100.504C173.525 105.249 176.195 110.7 177.366 116.855C179.521 113.566 181.394 110.159 182.987 106.635C184.72 102.642 184.228 99.0474 181.512 95.8524L162.682 73.3701L165.844 70.1282C171.09 64.49 173.713 57.8417 173.713 50.1831V43.9107C173.713 42.736 173.151 42.1487 172.027 42.1487H165.774C158.279 42.1487 151.769 44.7094 146.242 49.8307L143.502 52.3679L140.27 50.465C136.991 48.5387 133.478 47.0586 129.731 46.025C125.984 44.9443 122.073 44.404 117.998 44.404C113.97 44.404 110.082 44.9443 106.335 46.025C102.588 47.0586 99.0749 48.5387 95.7962 50.465L92.5643 52.3679L89.8242 49.8307C84.2972 44.7094 77.7866 42.1487 70.2923 42.1487H64.0393C62.9152 42.1487 62.3531 42.736 62.3531 43.9107ZM165.563 103.816L152.284 88.6637C148.912 84.764 144.649 82.8141 139.497 82.8141H139.146C136.148 82.8611 133.408 83.6598 130.925 85.2103C128.443 86.7138 126.452 88.7342 124.953 91.2714C123.501 93.7616 122.775 96.5337 122.775 99.5877V107.693H126.288C127.178 107.693 128.092 107.763 129.028 107.904V99.5877C129.028 96.5807 130.059 93.9965 132.12 91.8352C134.181 89.6269 136.687 88.4993 139.637 88.4523C143.15 88.4053 146.008 89.7209 148.209 92.399L161.347 107.552C164.111 110.747 165.891 114.317 166.687 118.264C167.53 122.211 167.46 126.04 166.476 129.752C168.771 127.591 170.926 125.288 172.94 122.845C172.799 115.656 170.34 109.314 165.563 103.816ZM113.291 107.693V99.5877C113.244 96.5337 112.471 93.7616 110.972 91.2714C109.52 88.7342 107.553 86.7138 105.07 85.2103C102.635 83.6598 99.918 82.8611 96.9203 82.8141H96.569C91.4167 82.8141 87.1544 84.764 83.782 88.6637V88.7342L70.5734 103.816C65.7489 109.361 63.2899 115.75 63.1962 122.986C65.2103 125.429 67.3883 127.732 69.7303 129.893C68.6998 126.134 68.5827 122.281 69.379 118.335C70.1752 114.388 71.9785 110.794 74.7889 107.552L87.9272 92.399C90.1286 89.7209 92.9858 88.4053 96.4987 88.4523C99.4496 88.4993 101.955 89.6269 104.016 91.8352C106.077 93.9965 107.108 96.5807 107.108 99.5877V107.834C107.998 107.74 108.864 107.693 109.707 107.693H113.291ZM133.665 147.089C136.382 145.116 138.56 142.555 140.2 139.407C141.839 136.306 142.659 132.923 142.659 129.259C142.659 125.124 141.324 121.53 138.654 118.476C135.984 115.375 132.682 113.542 128.747 112.978C129.169 113.871 129.309 114.834 129.169 115.868C129.075 116.902 128.63 117.841 127.834 118.687L121.441 125.1C120.504 126.04 119.356 126.51 117.998 126.51C116.686 126.51 115.539 126.04 114.555 125.1L108.232 118.687C107.436 117.841 106.967 116.902 106.827 115.868C106.733 114.834 106.897 113.871 107.319 112.978C103.384 113.542 100.059 115.375 97.3418 118.476C94.672 121.53 93.3371 125.124 93.3371 129.259C93.3371 132.923 94.1568 136.306 95.7962 139.407C97.4355 142.555 99.637 145.116 102.4 147.089C107.553 148.264 112.752 148.851 117.998 148.851C123.291 148.851 128.513 148.264 133.665 147.089ZM138.584 110.23C139.614 110.23 140.504 109.877 141.253 109.173C142.003 108.421 142.378 107.505 142.378 106.424V98.8124C142.378 97.7788 142.003 96.8861 141.253 96.1343C140.504 95.3825 139.614 95.0067 138.584 95.0067C137.553 95.0067 136.663 95.3825 135.914 96.1343C135.164 96.8861 134.79 97.7788 134.79 98.8124V106.424C134.79 107.458 135.164 108.35 135.914 109.102C136.663 109.854 137.553 110.23 138.584 110.23ZM93.9694 105.86C93.9694 106.894 94.3442 107.787 95.0936 108.538C95.843 109.29 96.7329 109.666 97.7634 109.666C98.7939 109.666 99.6838 109.314 100.433 108.609C101.183 107.857 101.557 106.941 101.557 105.86V98.2486C101.557 97.2149 101.183 96.3222 100.433 95.5705C99.6838 94.8187 98.7939 94.4428 97.7634 94.4428C96.7329 94.4428 95.843 94.8187 95.0936 95.5705C94.3442 96.3222 93.9694 97.2149 93.9694 98.2486V105.86Z"
      stroke="#0F1729"
      stroke-width="10"
      stroke-linejoin="round"
      mask="url(#path-2-outside-1_272_52)"
    />
  </g>
  <defs>
    <clipPath id="clip0_272_52">
      <rect width="678" height="187" fill="white" />
    </clipPath>
  </defs>
</svg>
